<svg width="982" height="38" viewBox="0 0 982 38" fill="none" xmlns="http://www.w3.org/2000/svg">
<path d="M0 38H982V27.3128C975.991 28.7767 968.479 28.3901 961.969 27.3128C935.429 22.9211 928.919 31.2166 912.394 27.3128C895.868 23.4091 877.841 12.674 857.81 12.674C841.786 12.674 805.667 34.055 793.712 35.6083C786.201 36.5842 737.326 39.1217 726.109 35.6083C714.892 32.0949 682.709 28.6141 668.02 27.3128C656.503 26.2925 653.999 25.361 636.973 19.9933C599.276 8.10898 597.913 16.0896 572.374 19.9933C561.357 21.5269 501.266 15.1137 496.258 12.674C487.244 7.46905 455.796 -2.25777 402.114 0.474851C348.432 3.20747 161.413 26.3371 74.614 37.5604C68.9386 37.0723 53.8823 35.9987 39.0597 35.6083C24.237 35.2179 6.84379 36.3734 0 38Z" fill="#D6EAFF"/>
</svg>
