<svg width="982" height="105" viewBox="0 0 982 105" fill="none" xmlns="http://www.w3.org/2000/svg">
<path d="M923 2.00002C939.4 -1.19998 968.5 9.33335 981 15V104H620.529C619.395 104.05 618.322 104.046 617.314 104H-1V27.5H9.5C38.5 28.5 17.5 34.5 87 39.5C156.5 44.5 135.5 50.5 187.5 55C239.5 59.5 226.5 63.5 257.5 66C282.3 68 301.833 72.5 308.5 74.5C345.5 74.5 333 82.5 354.5 82.5C381 81 376 88 381 88.5C386 89 494 94 540.5 93.5C577.7 93.1 601.333 99 608.5 102C610.191 102.911 613.212 103.811 617.314 104H620.529C626.609 103.733 634.456 101.933 643.5 97C665.5 85 679.5 88 716 74.5C787.5 54.5 789.5 58 823.5 55C857.5 52 843 49.5 853.5 47C864 44.5 856 37 877.5 22C899 7 902.5 6.00002 923 2.00002Z" fill="#91C7FF" stroke="#B5D9FF"/>
</svg>
