<svg width="982" height="71" viewBox="0 0 982 71" fill="none" xmlns="http://www.w3.org/2000/svg">
<path d="M983 70.5H0V11.0459C9.19004 12.7115 29.0739 15.9427 35.0892 15.543C42.6084 15.0433 83.7129 6.54877 110.28 5.04974C136.848 3.55071 175.446 9.54683 199.507 11.0459C223.569 12.5449 283.722 -0.946386 348.887 0.052968C414.053 1.05232 432.6 23.0381 473.705 19.0407C514.809 15.0433 528.845 26.5358 566.441 30.0336C604.036 33.5313 597.018 38.0284 617.069 48.022C637.12 58.0155 655.668 58.0155 662.685 58.5152C669.703 59.0149 694.767 58.5152 722.838 63.512C750.91 68.5087 761.938 73.5055 780.485 67.0097C799.032 60.5139 798.03 63.512 827.104 63.512C849.661 59.0149 845.651 50.0207 858.684 30.0336C900.791 23.6377 959.106 22.705 983 23.0381V70.5Z" fill="#B5D9FF"/>
</svg>
