<svg width="982" height="130" viewBox="0 0 982 130" fill="none" xmlns="http://www.w3.org/2000/svg">
<path d="M912 8.5C936.4 2.1 969.167 0.5 982.5 0.5V130H262H-1V107H21C32.5 107 114.5 116.5 150.5 123C186.5 129.5 252 127.5 262 130C272.5 130 308 116.5 325 107C342 97.5 382.5 91.5 403 82C419.4 74.4 423.5 67.5 423.5 65C428.167 61.5 453.2 54.1 516 52.5C594.5 50.5 570 48 584 46C598 44 632.5 33 650.5 26.5C668.5 20 680 30.5 689 26.5C698 22.5 752 13.5 822.5 8.5C893 3.5 881.5 16.5 912 8.5Z" fill="#5DACFF"/>
</svg>
