<svg width="291" height="147" viewBox="0 0 291 147" fill="none" xmlns="http://www.w3.org/2000/svg">
<path d="M114 73.5C31.6 81.5 3.66667 91.8333 0 96C29.5 100 46.2678 99.3876 51.5 99C94.7 95.8 119.5 101.333 126.5 104.5L138 112V110C144.8 112 152.333 123.5 155.5 128L153.5 116.5L162 129L161 118.5L170 131.5L171 121.5L182.5 134.5L185.5 126.5L195.5 140.5L198.5 131.5L207.5 145L215 136L225.5 145L232.5 136L240.5 146.5L245.5 134.5L254 143L251 126.5L261 134.5C261 127.3 250.333 112.5 245 106L252.5 107L242 97.5L245.5 98L238 92H245L243.5 89.5C247.9 87.5 262.333 93 269 96L263.5 89.5L275 90.5L259.5 84.5C268.7 81.7 282.667 88.3333 288.5 92L282 86.5H290.5C286.1 81.3 262.333 75.3333 251 73L268.5 74.5L254 67.5L285.5 67L261 59C264.6 57.8 275.167 60.8333 280 62.5C270.8 55.3 251.833 55.5 243.5 56.5C245.9 51.7 261.5 53.5 269 55C265 51.8 253.667 50 248.5 49.5L251 45.5C238.6 50.7 228.167 51 224.5 50.5C229.3 44.1 249.167 36.8333 258.5 34L237 36L252.5 26.5C244.5 24.5 229.833 30.6667 223.5 34C230.3 29.2 231.667 23 231.5 20.5C218.7 29.3 207.5 33.8333 203.5 35C205.1 25.8 218.833 14.5 225.5 10L210.5 17C210.9 13.8 217.333 10.6667 220.5 9.5C204.5 11.9 192.5 23.1667 188.5 28.5C192.1 22.9 192.667 17.5 192.5 15.5L189.5 17C190.3 13.4 197.833 5.83333 201.5 2.5C187.5 9.7 178.667 23.8333 176 30C176 21.2 188 6.33333 194 0C189.6 2.4 180.167 12.3333 176 17C176 14.2 180.333 6.16667 182.5 2.5C170.1 9.3 158.667 22.6667 154.5 28.5C154.9 24.5 160.667 13.5 163.5 8.5C149.5 15.7 142.333 24.8333 140.5 28.5L145 9.5C142.2 19.9 134.5 33.5 131 39C129.4 37.4 131.667 24.6667 133 18.5C127 31.3 124.167 46.5 123.5 52.5C121.1 48.9 122.5 37.6667 123.5 32.5C115.9 44.9 117.667 57.6667 119.5 62.5C113.5 57.3 111 46 110.5 41C107.7 55 111.667 68.5 114 73.5Z" fill="black"/>
</svg>
