<svg width="544" height="544" viewBox="0 0 544 544" fill="none" xmlns="http://www.w3.org/2000/svg">
<path d="M288.89 114.81C288.89 81.2413 261.631 54.0283 228.005 54.0283C194.379 54.0283 167.12 81.2413 167.12 114.81C167.12 148.379 194.379 175.592 228.005 175.592C261.631 175.592 288.89 148.379 288.89 114.81ZM343.01 114.81C343.01 178.218 291.52 229.62 228.005 229.62C164.489 229.62 113 178.218 113 114.81C113 51.4023 164.489 0 228.005 0C291.52 0 343.01 51.4023 343.01 114.81Z" fill="#002E1B"/>
<path d="M255.11 527.048C255.11 490.26 281.601 465.858 315.995 465.858C350.389 465.858 376.88 490.26 376.88 527.048H431C431 458.699 378.742 411.467 315.995 411.467C253.248 411.467 200.99 458.699 200.99 527.048H255.11Z" fill="#002E1B"/>
<path d="M376.88 263.524C376.88 300.313 350.389 324.714 315.995 324.714C281.601 324.714 255.11 300.313 255.11 263.524H200.99C200.99 331.873 253.248 379.105 315.995 379.105C378.742 379.105 431 331.873 431 263.524H376.88Z" fill="#002E1B"/>
<path d="M376.971 5.87874e-06L431 3.52105e-06V229.62H376.971V5.87874e-06Z" fill="#002E1B"/>
<path d="M113 263.524H167.029V527.048H113V263.524Z" fill="#002E1B"/>
<path d="M421.738 246.572C421.738 255.934 414.135 263.524 404.757 263.524C395.379 263.524 387.777 255.934 387.777 246.572C387.777 237.21 395.379 229.62 404.757 229.62C414.135 229.62 421.738 237.21 421.738 246.572Z" fill="#FF9203"/>
<path d="M376.971 115.581C376.971 124.943 369.368 132.533 359.99 132.533C350.612 132.533 343.01 124.943 343.01 115.581C343.01 106.218 350.612 98.6289 359.99 98.6289C369.368 98.6289 376.971 106.218 376.971 115.581Z" fill="#FF9203"/>
<path d="M200.99 527.048C200.99 536.41 193.388 544 184.01 544C174.632 544 167.029 536.41 167.029 527.048C167.029 517.686 174.632 510.096 184.01 510.096C193.388 510.096 200.99 517.686 200.99 527.048Z" fill="#FF9203"/>
</svg>
