<svg width="45" height="77" viewBox="0 0 45 77" fill="none" xmlns="http://www.w3.org/2000/svg">
<path d="M24.8901 16.2507C24.8901 11.4992 21.0326 7.64739 16.2743 7.64739C11.5159 7.64739 7.65848 11.4992 7.65848 16.2507C7.65848 21.0022 11.5159 24.854 16.2743 24.854C21.0326 24.854 24.8901 21.0022 24.8901 16.2507ZM32.5485 16.2507C32.5485 25.2257 25.2623 32.5014 16.2743 32.5014C7.28624 32.5014 0 25.2257 0 16.2507C0 7.27569 7.28624 0 16.2743 0C25.2623 0 32.5485 7.27569 32.5485 16.2507Z" fill="#002E1B"/>
<path d="M20.1099 74.6006C20.1099 69.3934 23.8587 65.9395 28.7257 65.9395C33.5928 65.9395 37.3415 69.3934 37.3415 74.6006H45C45 64.9262 37.6051 58.2408 28.7257 58.2408C19.8464 58.2408 12.4515 64.9262 12.4515 74.6006H20.1099Z" fill="#002E1B"/>
<path d="M37.3415 37.3003C37.3415 42.5075 33.5928 45.9613 28.7257 45.9613C23.8587 45.9613 20.1099 42.5075 20.1099 37.3003H12.4515C12.4515 46.9747 19.8464 53.6601 28.7257 53.6601C37.6051 53.6601 45 46.9747 45 37.3003H37.3415Z" fill="#002E1B"/>
<path d="M37.3544 8.32101e-07L45 4.98384e-07V32.5014H37.3544V8.32101e-07Z" fill="#002E1B"/>
<path d="M0 37.3003H7.64563V74.6006H0V37.3003Z" fill="#002E1B"/>
<path d="M43.6893 34.9008C43.6893 36.226 42.6135 37.3003 41.2864 37.3003C39.9593 37.3003 38.8835 36.226 38.8835 34.9008C38.8835 33.5757 39.9593 32.5014 41.2864 32.5014C42.6135 32.5014 43.6893 33.5757 43.6893 34.9008Z" fill="#FF9203"/>
<path d="M37.3544 16.3598C37.3544 17.6849 36.2785 18.7592 34.9515 18.7592C33.6244 18.7592 32.5485 17.6849 32.5485 16.3598C32.5485 15.0346 33.6244 13.9603 34.9515 13.9603C36.2785 13.9603 37.3544 15.0346 37.3544 16.3598Z" fill="#FF9203"/>
<path d="M12.4515 74.6006C12.4515 75.9257 11.3756 77 10.0485 77C8.72145 77 7.64563 75.9257 7.64563 74.6006C7.64563 73.2754 8.72145 72.2011 10.0485 72.2011C11.3756 72.2011 12.4515 73.2754 12.4515 74.6006Z" fill="#FF9203"/>
</svg>
