<svg width="45" height="75" viewBox="0 0 45 75" fill="none" xmlns="http://www.w3.org/2000/svg">
<path d="M24.8901 16.3377C24.8901 11.5608 21.0326 7.68834 16.2743 7.68834C11.5159 7.68834 7.65848 11.5608 7.65848 16.3377C7.65848 21.1146 11.5159 24.9871 16.2743 24.9871C21.0326 24.9871 24.8901 21.1146 24.8901 16.3377ZM32.5485 16.3377C32.5485 25.3608 25.2623 32.6754 16.2743 32.6754C7.28624 32.6754 0 25.3608 0 16.3377C0 7.31465 7.28624 0 16.2743 0C25.2623 0 32.5485 7.31465 32.5485 16.3377Z" fill="#002E1B"/>
<path d="M20.1099 75C20.1099 69.7649 23.8587 66.2926 28.7257 66.2926C33.5928 66.2926 37.3415 69.7649 37.3415 75H45C45 65.2738 37.6051 58.5526 28.7257 58.5526C19.8464 58.5526 12.4515 65.2738 12.4515 75H20.1099Z" fill="#002E1B"/>
<path d="M37.3415 37.5C37.3415 42.7351 33.5928 46.2074 28.7257 46.2074C23.8587 46.2074 20.1099 42.7351 20.1099 37.5H12.4515C12.4515 47.2262 19.8464 53.9474 28.7257 53.9474C37.6051 53.9474 45 47.2262 45 37.5H37.3415Z" fill="#002E1B"/>
<path d="M37.3544 8.36556e-07L45 5.01052e-07V32.6754H37.3544V8.36556e-07Z" fill="#002E1B"/>
<path d="M0 37.5H7.64563V75H0V37.5Z" fill="#002E1B"/>
</svg>
